<svg width="30" height="22" viewBox="0 0 30 22" fill="none" xmlns="http://www.w3.org/2000/svg">
<path d="M2.21806 0.493469H12.615C13.1665 0.493469 13.6954 0.712547 14.0854 1.10251C14.4753 1.49247 14.6944 2.02137 14.6944 2.57286C14.6944 3.12435 14.4753 3.65325 14.0854 4.04321C13.6954 4.43318 13.1665 4.65225 12.615 4.65225H2.21806C1.66657 4.65225 1.13767 4.43318 0.747712 4.04321C0.35775 3.65325 0.138672 3.12435 0.138672 2.57286C0.138672 2.02137 0.35775 1.49247 0.747712 1.10251C1.13767 0.712547 1.66657 0.493469 2.21806 0.493469ZM16.7738 17.1286H27.1708C27.7223 17.1286 28.2512 17.3477 28.6411 17.7376C29.0311 18.1276 29.2502 18.6565 29.2502 19.208C29.2502 19.7595 29.0311 20.2884 28.6411 20.6783C28.2512 21.0683 27.7223 21.2874 27.1708 21.2874H16.7738C16.2223 21.2874 15.6934 21.0683 15.3035 20.6783C14.9135 20.2884 14.6944 19.7595 14.6944 19.208C14.6944 18.6565 14.9135 18.1276 15.3035 17.7376C15.6934 17.3477 16.2223 17.1286 16.7738 17.1286ZM2.21806 8.81104H27.1708C27.7223 8.81104 28.2512 9.03012 28.6411 9.42008C29.0311 9.81004 29.2502 10.3389 29.2502 10.8904C29.2502 11.4419 29.0311 11.9708 28.6411 12.3608C28.2512 12.7507 27.7223 12.9698 27.1708 12.9698H2.21806C1.66657 12.9698 1.13767 12.7507 0.747712 12.3608C0.35775 11.9708 0.138672 11.4419 0.138672 10.8904C0.138672 10.3389 0.35775 9.81004 0.747712 9.42008C1.13767 9.03012 1.66657 8.81104 2.21806 8.81104Z" fill="white"/>
</svg>
