<svg width="54" height="54" viewBox="0 0 54 54" fill="none" xmlns="http://www.w3.org/2000/svg">
<path d="M49.7623 10.7988C47.8225 10.7988 46.245 12.3949 46.245 14.3575C46.245 16.3201 47.8226 17.9162 49.7623 17.9162C51.7021 17.9162 53.2796 16.3202 53.2796 14.3575C53.2796 12.3949 51.7021 10.7988 49.7623 10.7988ZM49.7623 16.1369C48.7924 16.1369 48.0036 15.3389 48.0036 14.3575C48.0036 13.3762 48.7923 12.5781 49.7623 12.5781C50.7323 12.5781 51.521 13.3761 51.521 14.3575C51.5209 15.3389 50.7322 16.1369 49.7623 16.1369Z" fill="#C09D5E"/>
<path d="M4.03709 40.158C2.09734 40.158 0.519806 41.7541 0.519806 43.7166C0.519806 45.6792 2.09734 47.2753 4.03709 47.2753C5.97694 47.2753 7.55438 45.6792 7.55438 43.7166C7.55438 41.7541 5.97694 40.158 4.03709 40.158ZM4.03709 45.496C3.06722 45.496 2.2784 44.698 2.2784 43.7166C2.2784 42.7352 3.06711 41.9372 4.03709 41.9372C5.00696 41.9372 5.79579 42.7352 5.79579 43.7166C5.79579 44.698 5.00707 45.496 4.03709 45.496Z" fill="#C09D5E"/>
<path d="M48.0573 11.9233L40.4713 8.21787C40.0334 8.00341 39.5085 8.19025 39.2974 8.63251C39.0864 9.07467 39.2701 9.60671 39.7072 9.82023L47.2932 13.5257C47.4164 13.5862 47.5465 13.6146 47.6748 13.6146C48.0019 13.6146 48.3158 13.4296 48.467 13.1111C48.6781 12.6689 48.4943 12.1369 48.0573 11.9233Z" fill="#C09D5E"/>
<path d="M40.0896 46.3857C38.1498 46.3857 36.5724 47.9818 36.5724 49.9444C36.5724 51.907 38.1498 53.5032 40.0896 53.5032C42.0295 53.5032 43.6069 51.9071 43.6069 49.9445C43.6069 47.9819 42.0295 46.3857 40.0896 46.3857ZM40.0896 51.7238C39.1198 51.7238 38.3309 50.9258 38.3309 49.9444C38.3309 48.963 39.1198 48.1651 40.0896 48.1651C41.0595 48.1651 41.8483 48.9631 41.8483 49.9445C41.8483 50.9259 41.0595 51.7238 40.0896 51.7238Z" fill="#C09D5E"/>
<path d="M38.3846 47.5104L30.7987 43.8049C30.3607 43.5905 29.8358 43.7765 29.6248 44.2196C29.4137 44.6617 29.5975 45.1938 30.0346 45.4073L37.6205 49.1127C37.7437 49.1732 37.8738 49.2017 38.0021 49.2017C38.3292 49.2017 38.6432 49.0166 38.7945 48.6981C39.0054 48.2558 38.8217 47.7239 38.3846 47.5104Z" fill="#C09D5E"/>
<path d="M26.8997 24.1438C24.9599 24.1438 23.3824 25.7399 23.3824 27.7025C23.3824 29.6651 24.96 31.2611 26.8997 31.2611C28.8396 31.2611 30.417 29.665 30.417 27.7025C30.417 25.7399 28.8396 24.1438 26.8997 24.1438ZM26.8997 29.4818C25.9298 29.4818 25.141 28.6839 25.141 27.7025C25.141 26.7212 25.9297 25.9231 26.8997 25.9231C27.8696 25.9231 28.6584 26.7211 28.6584 27.7025C28.6584 28.6839 27.8696 29.4818 26.8997 29.4818Z" fill="#C09D5E"/>
<path d="M25.3538 25.3683L19.5265 20.7731C19.1431 20.4733 18.591 20.54 18.2919 20.9279C17.9938 21.3159 18.0615 21.8745 18.4449 22.1771L24.2722 26.7723C24.4332 26.8986 24.6231 26.96 24.8122 26.96C25.0742 26.96 25.3328 26.8426 25.5068 26.6175C25.8049 26.2295 25.7372 25.6708 25.3538 25.3683Z" fill="#C09D5E"/>
<path d="M42.7277 23.2544C37.3945 23.2544 33.055 27.6449 33.055 33.0409C33.055 38.4368 37.3945 42.8273 42.7277 42.8273C48.0608 42.8273 52.4003 38.4368 52.4003 33.0409C52.4003 27.6449 48.0608 23.2544 42.7277 23.2544ZM42.7277 41.0478C38.3635 41.0478 34.8137 37.4562 34.8137 33.0408C34.8137 28.6253 38.3635 25.0337 42.7277 25.0337C47.0918 25.0337 50.6416 28.6253 50.6416 33.0408C50.6416 37.4562 47.0918 41.0478 42.7277 41.0478Z" fill="#C09D5E"/>
<path d="M42.7276 26.813C40.7878 26.813 39.2104 28.4091 39.2104 30.3717C39.2104 32.3343 40.7879 33.9303 42.7276 33.9303C44.6675 33.9303 46.2449 32.3342 46.2449 30.3717C46.2449 28.4091 44.6675 26.813 42.7276 26.813ZM42.7276 32.151C41.7578 32.151 40.9689 31.353 40.9689 30.3717C40.9689 29.3904 41.7577 28.5923 42.7276 28.5923C43.6975 28.5923 44.4863 29.3903 44.4863 30.3717C44.4863 31.353 43.6975 32.151 42.7276 32.151Z" fill="#C09D5E"/>
<path d="M45.2786 35.7095H40.1767C38.674 35.7095 37.4517 36.9132 37.4517 38.3918V40.737C37.4517 41.0546 37.6187 41.3482 37.8904 41.5075C39.3642 42.3705 41.0366 42.8269 42.7276 42.8269C44.4186 42.8269 46.0911 42.3705 47.5648 41.5075C47.8366 41.3491 48.0036 41.0546 48.0036 40.738V38.3928C48.0036 36.9132 46.7814 35.7095 45.2786 35.7095ZM46.2449 40.2068C44.0563 41.3099 41.399 41.3099 39.2103 40.2068V38.3928C39.2103 37.8945 39.6438 37.4889 40.1766 37.4889H45.2785C45.8113 37.4889 46.2448 37.8945 46.2448 38.3928V40.2068H46.2449Z" fill="#C09D5E"/>
<path d="M21.6237 33.9304C16.2906 33.9304 11.9511 38.321 11.9511 43.7169C11.9511 49.1128 16.2906 53.5032 21.6237 53.5032C26.9569 53.5032 31.2964 49.1127 31.2964 43.7168C31.2964 38.3209 26.9569 33.9304 21.6237 33.9304ZM21.6237 51.7239C17.2596 51.7239 13.7098 48.1322 13.7098 43.7168C13.7098 39.3013 17.2596 35.7097 21.6237 35.7097C25.9879 35.7097 29.5377 39.3013 29.5377 43.7168C29.5377 48.1322 25.9879 51.7239 21.6237 51.7239Z" fill="#C09D5E"/>
<path d="M21.6237 37.489C19.6839 37.489 18.1064 39.0851 18.1064 41.0477C18.1064 43.0103 19.684 44.6063 21.6237 44.6063C23.5635 44.6063 25.141 43.0102 25.141 41.0477C25.141 39.0851 23.5636 37.489 21.6237 37.489ZM21.6237 42.8271C20.6539 42.8271 19.865 42.0291 19.865 41.0477C19.865 40.0664 20.6538 39.2683 21.6237 39.2683C22.5936 39.2683 23.3824 40.0663 23.3824 41.0477C23.3824 42.0291 22.5936 42.8271 21.6237 42.8271Z" fill="#C09D5E"/>
<path d="M24.1746 46.3857H19.0728C17.5701 46.3857 16.3477 47.5895 16.3477 49.0681V51.4133C16.3477 51.7309 16.5148 52.0245 16.7865 52.1838C18.2603 53.0467 19.9327 53.5032 21.6237 53.5032C23.3147 53.5032 24.9872 53.0467 26.4609 52.1838C26.7327 52.0254 26.8997 51.731 26.8997 51.4142V49.0691C26.8997 47.5895 25.6775 46.3857 24.1746 46.3857ZM25.141 50.883C22.9523 51.9862 20.295 51.9862 18.1063 50.883V49.0691C18.1063 48.5708 18.5399 48.1651 19.0727 48.1651H24.1745C24.7074 48.1651 25.1409 48.5708 25.1409 49.0691L25.141 50.883Z" fill="#C09D5E"/>
<path d="M10.1925 11.6885C4.8593 11.6885 0.519806 16.079 0.519806 21.4749C0.519806 26.8709 4.8593 31.2614 10.1925 31.2614C15.5256 31.2614 19.8651 26.8709 19.8651 21.4749C19.865 16.079 15.5255 11.6885 10.1925 11.6885ZM10.1925 29.482C5.82835 29.482 2.2785 25.8904 2.2785 21.4749C2.2785 17.0595 5.82835 13.4679 10.1925 13.4679C14.5566 13.4679 18.1064 17.0595 18.1064 21.4749C18.1064 25.8904 14.5566 29.482 10.1925 29.482Z" fill="#C09D5E"/>
<path d="M10.1925 15.2473C8.25261 15.2473 6.67517 16.8434 6.67517 18.806C6.67517 20.7685 8.25271 22.3646 10.1925 22.3646C12.1323 22.3646 13.7097 20.7685 13.7097 18.806C13.7097 16.8434 12.1322 15.2473 10.1925 15.2473ZM10.1925 20.5854C9.22258 20.5854 8.43376 19.7874 8.43376 18.806C8.43376 17.8246 9.22248 17.0266 10.1925 17.0266C11.1623 17.0266 11.9512 17.8246 11.9512 18.806C11.9512 19.7874 11.1623 20.5854 10.1925 20.5854Z" fill="#C09D5E"/>
<path d="M12.7434 24.1438H7.64154C6.13881 24.1438 4.91647 25.3476 4.91647 26.8262V29.1714C4.91647 29.4889 5.08351 29.7825 5.35525 29.9418C6.82902 30.8048 8.50146 31.2612 10.1925 31.2612C11.8834 31.2612 13.5559 30.8048 15.0297 29.9418C15.3014 29.7835 15.4684 29.4889 15.4684 29.1723V26.8271C15.4684 25.3476 14.2461 24.1438 12.7434 24.1438ZM13.7097 28.6411C11.5211 29.7443 8.86377 29.7443 6.67506 28.6411V26.8271C6.67506 26.3289 7.10858 25.9232 7.64143 25.9232H12.7433C13.2761 25.9232 13.7096 26.3289 13.7096 26.8271L13.7097 28.6411Z" fill="#C09D5E"/>
<path d="M31.2964 0.122803C25.9632 0.122803 21.6237 4.51335 21.6237 9.90926C21.6237 15.3052 25.9632 19.6957 31.2964 19.6957C36.6296 19.6957 40.969 15.3052 40.969 9.90926C40.9689 4.51335 36.6294 0.122803 31.2964 0.122803ZM31.2964 17.9163C26.9323 17.9163 23.3824 14.3247 23.3824 9.90926C23.3824 5.4938 26.9323 1.90219 31.2964 1.90219C35.6605 1.90219 39.2104 5.4938 39.2104 9.90926C39.2104 14.3247 35.6605 17.9163 31.2964 17.9163Z" fill="#C09D5E"/>
<path d="M31.2964 3.6814C29.3565 3.6814 27.7791 5.27749 27.7791 7.24006C27.7791 9.20263 29.3567 10.7987 31.2964 10.7987C33.2361 10.7987 34.8137 9.20273 34.8137 7.24017C34.8137 5.2776 33.2361 3.6814 31.2964 3.6814ZM31.2964 9.01945C30.3265 9.01945 29.5377 8.22145 29.5377 7.24006C29.5377 6.25878 30.3264 5.46068 31.2964 5.46068C32.2664 5.46068 33.0551 6.25867 33.0551 7.24006C33.055 8.22145 32.2663 9.01945 31.2964 9.01945Z" fill="#C09D5E"/>
<path d="M33.8473 12.5781H28.7455C27.2428 12.5781 26.0204 13.7819 26.0204 15.2605V17.6057C26.0204 17.9233 26.1875 18.2169 26.4592 18.3762C27.933 19.2391 29.6054 19.6956 31.2964 19.6956C32.9874 19.6956 34.6598 19.2391 36.1336 18.3762C36.4053 18.2178 36.5724 17.9233 36.5724 17.6066V15.2614C36.5724 13.7818 35.35 12.5781 33.8473 12.5781ZM34.8137 17.0754C32.6251 18.1786 29.9677 18.1786 27.779 17.0754V15.2614C27.779 14.7632 28.2125 14.3575 28.7454 14.3575H33.8472C34.3801 14.3575 34.8136 14.7632 34.8136 15.2614L34.8137 17.0754Z" fill="#C09D5E"/>
<path d="M23.1722 9.32973C22.8566 8.95784 22.3017 8.91332 21.9323 9.23277L15.8386 14.5086C15.4693 14.8279 15.4262 15.3894 15.7418 15.763C15.916 15.9685 16.1621 16.0744 16.4101 16.0744C16.6124 16.0744 16.8155 16.0042 16.9817 15.86L23.0754 10.5842C23.4449 10.2648 23.4879 9.70339 23.1722 9.32973Z" fill="#C09D5E"/>
<path d="M42.5517 23.6111L37.2758 16.4937C36.9846 16.0996 36.4333 16.0221 36.0447 16.3157C35.656 16.6102 35.5778 17.168 35.8688 17.5603L41.1447 24.6778C41.318 24.9109 41.5818 25.0336 41.8491 25.0336C42.032 25.0336 42.2176 24.9757 42.3758 24.8556C42.7645 24.5612 42.8428 24.0034 42.5517 23.6111Z" fill="#C09D5E"/>
<path d="M35.3351 35.983C35.044 35.5898 34.4927 35.5106 34.104 35.8051L29.1921 39.5319C28.8034 39.8264 28.7252 40.3842 29.0162 40.7765C29.1894 41.0097 29.4532 41.1324 29.7205 41.1324C29.9042 41.1324 30.0889 41.0737 30.2473 40.9544L35.1592 37.2276C35.5479 36.9332 35.6262 36.3754 35.3351 35.983Z" fill="#C09D5E"/>
<path d="M12.8305 42.8271H6.6751C6.18975 42.8271 5.79581 43.2248 5.79581 43.7168C5.79581 44.2088 6.18975 44.6064 6.6751 44.6064H12.8304C13.3157 44.6064 13.7097 44.2088 13.7097 43.7168C13.7097 43.2248 13.3158 42.8271 12.8305 42.8271Z" fill="#C09D5E"/>
<path d="M10.1925 0.122803C8.25262 0.122803 6.67508 1.7189 6.67508 3.68147C6.67508 5.64414 8.25262 7.24013 10.1924 7.24013C12.1322 7.24013 13.7097 5.64404 13.7097 3.68147C13.7098 1.7189 12.1322 0.122803 10.1925 0.122803ZM10.1925 5.46085C9.22259 5.46085 8.43377 4.66286 8.43377 3.68147C8.43377 2.70018 9.22249 1.90208 10.1925 1.90208C11.1623 1.90208 11.9512 2.70008 11.9512 3.68147C11.9511 4.66286 11.1623 5.46085 10.1925 5.46085Z" fill="#C09D5E"/>
<path d="M10.1925 5.46069C9.70712 5.46069 9.31317 5.85834 9.31317 6.35033V12.578C9.31317 13.07 9.70712 13.4677 10.1925 13.4677C10.6778 13.4677 11.0718 13.07 11.0718 12.578V6.35033C11.0718 5.85834 10.6778 5.46069 10.1925 5.46069Z" fill="#C09D5E"/>
</svg>
