<svg width="58" height="58" viewBox="0 0 58 58" fill="none" xmlns="http://www.w3.org/2000/svg">
<path d="M48.0335 22.5364C48.229 23.0895 48.5907 23.5687 49.069 23.9083C49.5472 24.248 50.1188 24.4316 50.7054 24.4341H54.5007C55.2556 24.4341 55.9796 24.1342 56.5134 23.6004C57.0472 23.0666 57.3471 22.3425 57.3471 21.5876V3.56008C57.3471 2.80515 57.0472 2.08114 56.5134 1.54733C55.9796 1.01352 55.2556 0.713623 54.5007 0.713623L50.7054 0.713623C50.1188 0.716055 49.5472 0.899671 49.069 1.23935C48.5907 1.57903 48.229 2.05818 48.0335 2.61126H28.3408C27.1157 2.61028 25.9141 2.94712 24.8681 3.58475L9.5504 12.9183C8.95361 13.2783 8.49125 13.824 8.2341 14.4718C7.97695 15.1196 7.93918 15.8338 8.12657 16.5052C8.31396 17.1765 8.71619 17.7679 9.27168 18.1889C9.82717 18.6098 10.5053 18.8372 11.2023 18.836C12.0648 18.836 12.4471 18.5514 14.9179 17.7658C12.8771 20.2611 11.5437 23.2586 11.0569 26.4452C10.57 29.6318 10.9476 32.8907 12.1502 35.8816C11.346 35.8124 10.5383 35.7918 9.73163 35.8199C9.53609 35.2668 9.17445 34.7877 8.69618 34.448C8.21791 34.1083 7.64637 33.9247 7.05976 33.9223H3.26448C2.50956 33.9223 1.78555 34.2221 1.25174 34.756C0.717923 35.2898 0.41803 36.0138 0.41803 36.7687L0.41803 54.7962C0.41803 55.5512 0.717923 56.2752 1.25174 56.809C1.78555 57.3428 2.50956 57.6427 3.26448 57.6427H7.05976C7.64637 57.6403 8.21791 57.4567 8.69618 57.117C9.17445 56.7773 9.53609 56.2981 9.73163 55.7451H29.4234C30.6484 55.746 31.85 55.4092 32.8961 54.7716L48.2138 45.4381C48.8869 45.0332 49.3869 44.3941 49.6178 43.6433C49.8487 42.8926 49.7943 42.083 49.4651 41.3698C49.1359 40.6567 48.5549 40.0902 47.8337 39.779C47.1125 39.4678 46.3018 39.4338 45.5571 39.6835L42.8492 40.5886C44.8894 38.0932 46.2224 35.0959 46.7091 31.9095C47.1957 28.7231 46.8182 25.4645 45.6159 22.4738C46.4198 22.5428 47.2271 22.5637 48.0335 22.5364ZM50.7054 2.61126H54.5007C54.7523 2.61126 54.9936 2.71122 55.1716 2.88916C55.3495 3.0671 55.4495 3.30843 55.4495 3.56008V21.5876C55.4495 21.8393 55.3495 22.0806 55.1716 22.2585C54.9936 22.4365 54.7523 22.5364 54.5007 22.5364H50.7054C50.4537 22.5364 50.2124 22.4365 50.0345 22.2585C49.8565 22.0806 49.7566 21.8393 49.7566 21.5876V3.56008C49.7566 3.30843 49.8565 3.0671 50.0345 2.88916C50.2124 2.71122 50.4537 2.61126 50.7054 2.61126ZM11.6074 16.8729C11.3063 16.9714 10.9795 16.9558 10.6891 16.8291C10.3988 16.7024 10.1651 16.4735 10.0324 16.1858C9.89973 15.8981 9.87737 15.5717 9.96955 15.2686C10.0617 14.9655 10.262 14.7068 10.5324 14.5417L25.8568 5.20438C26.6049 4.74821 27.4645 4.50754 28.3408 4.50889H47.8589V20.6388H46.6055C42.2296 20.6388 41.2542 16.8435 36.7189 16.8435H32.174C30.1227 16.8435 28.0495 14.6432 29.3057 13.0483H36.1496C38.0321 13.0263 39.8575 12.3982 41.3548 11.2569C41.5641 11.1171 41.7094 10.8999 41.7586 10.653C41.8078 10.4061 41.7569 10.1498 41.6171 9.9404C41.4773 9.73104 41.2601 9.58578 41.0132 9.53658C40.7663 9.48738 40.51 9.53827 40.3006 9.67805C39.1162 10.6114 37.6574 11.1288 36.1496 11.1506H29.1947C28.8874 11.162 28.5825 11.2104 28.2867 11.2948L11.6074 16.8729ZM7.05976 55.7451H3.26448C3.01284 55.7451 2.77151 55.6451 2.59357 55.4672C2.41563 55.2892 2.31567 55.0479 2.31567 54.7962V36.7687C2.31567 36.5171 2.41563 36.2757 2.59357 36.0978C2.77151 35.9199 3.01284 35.8199 3.26448 35.8199H7.05976C7.3114 35.8199 7.55273 35.9199 7.73067 36.0978C7.90861 36.2757 8.00857 36.5171 8.00857 36.7687V54.7962C8.00857 55.0479 7.90861 55.2892 7.73067 55.4672C7.55273 55.6451 7.3114 55.7451 7.05976 55.7451ZM46.1567 41.4834C46.4579 41.385 46.7847 41.4006 47.075 41.5272C47.3654 41.6539 47.5991 41.8829 47.7318 42.1706C47.8645 42.4583 47.8868 42.7847 47.7946 43.0877C47.7024 43.3908 47.5021 43.6495 47.2318 43.8146L31.9083 53.1519C31.1598 53.6079 30.2999 53.8486 29.4234 53.8474H9.90621V37.7175H11.1586C15.5336 37.7175 16.5081 41.5128 21.0453 41.5128H25.5902C27.6377 41.5128 29.7147 43.7131 28.4584 45.3081H21.6146C19.7321 45.3296 17.9069 45.9582 16.4104 47.1004C16.2077 47.2428 16.0688 47.4588 16.0233 47.7023C15.9778 47.9458 16.0293 48.1974 16.1668 48.4034C16.3043 48.6094 16.5169 48.7534 16.7592 48.8048C17.0015 48.8562 17.2543 48.8108 17.4635 48.6783C18.648 47.745 20.1068 47.2275 21.6146 47.2057H28.5695C28.8768 47.1942 29.1817 47.1457 29.4775 47.0615L46.1567 41.4834ZM38.6848 41.9815L30.7375 44.6382C31.0098 42.361 28.7089 39.6095 25.5902 39.6095H21.0453C18.3213 39.6095 16.7595 37.3997 14.5032 36.4784C12.7902 33.121 12.3101 29.2688 13.1465 25.5936C13.983 21.9184 16.083 18.6535 19.0803 16.3682L27.0267 13.7115C26.7544 15.9886 29.0562 18.7402 32.174 18.7402H36.7189C39.5274 18.7402 40.8187 20.8751 43.2657 21.8713C44.9785 25.2291 45.4582 29.0816 44.621 32.7569C43.7838 36.4321 41.6829 39.6968 38.6848 41.9815Z" fill="#C09D5E"/>
</svg>
