<svg width="63" height="48" viewBox="0 0 63 48" fill="none" xmlns="http://www.w3.org/2000/svg">
<path d="M33.5154 37.9055H6.14668C5.26963 37.9045 4.42878 37.5557 3.80861 36.9355C3.18844 36.3154 2.83961 35.4745 2.83865 34.5975V13.2896H53.7158V18.2339C53.7203 18.5234 53.8384 18.7995 54.0447 19.0026C54.2511 19.2058 54.529 19.3196 54.8185 19.3196C55.108 19.3196 55.3859 19.2057 55.5922 19.0026C55.7985 18.7994 55.9167 18.5233 55.9211 18.2338V5.50899C55.9194 4.04727 55.338 2.64591 54.3044 1.61232C53.2708 0.578728 51.8694 -0.00269016 50.4077 -0.00439453H6.14668C4.68497 -0.00267557 3.28362 0.578749 2.25003 1.61234C1.21644 2.64592 0.63502 4.04728 0.633301 5.50899V34.5975C0.635014 36.0592 1.21644 37.4605 2.25002 38.4941C3.28361 39.5277 4.68497 40.1091 6.14668 40.1109H33.5154C33.8044 40.1055 34.0797 39.987 34.2821 39.7808C34.4846 39.5746 34.598 39.2971 34.598 39.0082C34.598 38.7192 34.4846 38.4418 34.2821 38.2355C34.0797 38.0293 33.8044 37.9108 33.5154 37.9055ZM2.83865 5.50899C2.83961 4.63194 3.18844 3.79109 3.80861 3.17092C4.42878 2.55075 5.26963 2.20192 6.14668 2.20097H50.4077C51.2847 2.20192 52.1256 2.55075 52.7458 3.17092C53.3659 3.79109 53.7148 4.63194 53.7157 5.50899V7.15224H2.83865V5.50899ZM2.83865 9.35755H53.7158V11.0843H2.83865V9.35755Z" fill="#C09D5E"/>
<path d="M8.617 30.7424C8.32827 30.7481 8.05328 30.8667 7.85109 31.0729C7.64889 31.2791 7.53564 31.5564 7.53564 31.8451C7.53565 32.1339 7.64893 32.4112 7.85113 32.6173C8.05334 32.8235 8.32834 32.9422 8.61706 32.9478H16.48C16.7688 32.9421 17.0437 32.8235 17.2459 32.6173C17.4481 32.4111 17.5614 32.1339 17.5614 31.8451C17.5614 31.5563 17.4481 31.279 17.2459 31.0729C17.0437 30.8667 16.7687 30.7481 16.48 30.7424H8.617Z" fill="#C09D5E"/>
<path d="M61.9298 25.3663C61.7971 24.7355 61.7311 23.9115 61.0005 23.6999L49.0035 19.8389C48.7835 19.7689 48.5472 19.7689 48.3273 19.8389L36.3314 23.6998C35.6025 23.9135 35.5363 24.7318 35.401 25.3641C33.635 34.1946 37.0787 42.1023 44.1729 45.51L48.1883 47.4386C48.3372 47.5102 48.5002 47.5474 48.6654 47.5474C48.8306 47.5474 48.9936 47.5102 49.1424 47.4386L53.159 45.51C60.2532 42.1029 63.6958 34.1952 61.9298 25.3663ZM52.2049 43.5222L48.6654 45.2214L45.1269 43.5222C38.9141 40.5572 35.9487 33.428 37.6031 25.608L48.6654 22.0469L59.7287 25.6075C61.3796 33.4304 58.4176 40.5572 52.2049 43.5222Z" fill="#C09D5E"/>
<path d="M53.9999 29.8945L48.1581 35.0999L45.5834 32.5258C45.3753 32.3255 45.0969 32.2148 44.8081 32.2175C44.5193 32.2202 44.243 32.3362 44.0388 32.5405C43.8345 32.7447 43.7186 33.0209 43.7159 33.3098C43.7131 33.5986 43.8239 33.877 44.0242 34.0851L47.3343 37.3952C47.5333 37.5943 47.8008 37.7097 48.0821 37.7178C48.3634 37.7259 48.6372 37.6261 48.8473 37.4389L55.4665 31.541C55.678 31.3447 55.8041 31.0734 55.8178 30.7852C55.8315 30.4969 55.7316 30.2148 55.5397 29.9994C55.3478 29.7839 55.0791 29.6523 54.7912 29.6327C54.5033 29.6131 54.2193 29.7071 53.9999 29.8945Z" fill="#C09D5E"/>
</svg>
