<svg width="58" height="58" viewBox="0 0 58 58" fill="none" xmlns="http://www.w3.org/2000/svg">
<path d="M29.1997 45.9247C31.5315 45.9247 33.4219 44.0343 33.4219 41.7025C33.4219 39.3706 31.5315 37.4802 29.1997 37.4802C26.8678 37.4802 24.9774 39.3706 24.9774 41.7025C24.9774 44.0343 26.8678 45.9247 29.1997 45.9247Z" fill="#C09D5E"/>
<path d="M43.4319 33.4003C45.7638 33.4003 47.6541 31.5099 47.6541 29.178C47.6541 26.8462 45.7638 24.9558 43.4319 24.9558C41.1 24.9558 39.2097 26.8462 39.2097 29.178C39.2097 31.5099 41.1 33.4003 43.4319 33.4003Z" fill="#C09D5E"/>
<path d="M29.1997 0.713623C23.5699 0.713623 18.0666 2.38304 13.3856 5.51076C8.70464 8.63848 5.05627 13.084 2.90185 18.2852C0.747441 23.4865 0.183748 29.2097 1.28206 34.7313C2.38037 40.2529 5.09135 45.3248 9.07219 49.3056C13.053 53.2865 18.1249 55.9974 23.6465 57.0957C29.1681 58.1941 34.8913 57.6304 40.0926 55.476C45.2938 53.3215 49.7393 49.6732 52.867 44.9922C55.9948 40.3112 57.6642 34.8079 57.6642 29.1782C57.6642 21.6289 54.6652 14.3888 49.3271 9.05069C43.989 3.71256 36.7489 0.713623 29.1997 0.713623ZM48.7097 11.8741C46.5271 12.9045 44.241 13.6996 41.8901 14.2461C40.8331 10.4731 38.9263 6.99211 36.3158 4.07007C41.1053 5.43965 45.4048 8.14689 48.7097 11.8741ZM30.3857 3.21613C34.1335 3.9989 37.5018 8.44649 39.518 14.7798C36.5039 15.3308 33.4494 15.6323 30.3857 15.6812V3.21613ZM8.17148 13.7599C9.18366 14.2751 10.2252 14.7305 11.2907 15.1238C11.3196 14.3055 11.5048 13.5004 11.8363 12.7517C11.0891 12.5738 10.3538 12.218 9.68959 11.886C12.9896 8.15033 17.2905 5.43808 22.0835 4.07007C20.718 5.51905 19.5676 7.15667 18.6678 8.93276C19.4999 9.03108 20.3052 9.2888 21.0398 9.69181C22.9612 6.13374 25.3807 3.7617 28.0255 3.21613V15.7049C26.8395 15.7049 25.6534 15.6101 24.4674 15.5033C24.4642 16.315 24.3114 17.1191 24.0167 17.8754C25.3332 17.9821 26.6616 18.0651 28.0255 18.0888V27.9921H16.7583C16.8082 26.0074 16.9746 24.0273 17.2564 22.062C16.4321 21.9939 15.6276 21.7727 14.8844 21.4097C14.5884 23.5921 14.4221 25.7901 14.3862 27.9921H3.10716C3.34081 22.8497 5.1042 17.894 8.17148 13.7599ZM8.17148 44.5964C5.1042 40.4623 3.34081 35.5066 3.10716 30.3642H14.3507C14.4102 34.223 14.9075 38.0626 15.8332 41.8093C13.1795 42.4369 10.6082 43.3723 8.17148 44.5964ZM9.68959 46.4704C11.8721 45.4397 14.1582 44.6445 16.5092 44.0983C17.5645 47.8756 19.4714 51.3608 22.0835 54.2862C17.2905 52.9182 12.9896 50.206 9.68959 46.4704ZM36.3158 54.2862C38.9364 51.3631 40.8516 47.8777 41.9138 44.0983C44.2648 44.6445 46.5509 45.4397 48.7334 46.4704C45.427 50.2098 41.1174 52.9223 36.3158 54.2862ZM50.2278 44.5964C47.7798 43.3697 45.1964 42.4343 42.5305 41.8093C43.0285 39.8196 43.393 37.7989 43.6217 35.7606H43.4319C42.6917 35.7628 41.957 35.6344 41.2615 35.3811C41.0331 37.3803 40.6685 39.3616 40.1704 41.3112C38.7353 41.0265 37.229 40.813 35.6991 40.647C35.7611 40.9994 35.7928 41.3565 35.7939 41.7144C35.7934 42.1525 35.7497 42.5895 35.6635 43.019C36.98 43.1732 38.2727 43.3511 39.518 43.5883C37.5018 49.9098 34.1454 54.3574 30.3857 55.1402V48.1545C29.6014 48.2968 28.7979 48.2968 28.0136 48.1545V55.1046C24.2539 54.3218 20.8975 49.8742 18.8813 43.5409C20.1266 43.3037 21.4193 43.1258 22.7358 42.9716C22.6496 42.5421 22.6059 42.1051 22.6054 41.667C22.6065 41.3091 22.6382 40.952 22.7003 40.5995C21.1703 40.7656 19.664 40.9791 18.2289 41.2637C17.3313 37.6972 16.838 34.041 16.7583 30.3642H28.0136V35.2269C28.7962 35.0671 29.6031 35.0671 30.3857 35.2269V30.3642H36.9444C36.802 29.5799 36.802 28.7764 36.9444 27.9921H30.3857V18.0533C33.6698 18.0034 36.9435 17.67 40.1704 17.057C40.6639 19.0076 41.0284 20.9886 41.2615 22.9871C41.9555 22.7257 42.6903 22.5892 43.4319 22.5839H43.6217C43.393 20.5456 43.0285 18.5249 42.5305 16.5352C45.1937 15.9066 47.7763 14.9755 50.2278 13.7599C53.2951 17.894 55.0585 22.8497 55.2921 27.9921H49.955C50.0974 28.7764 50.0974 29.5799 49.955 30.3642H55.2921C55.0585 35.5066 53.2951 40.4623 50.2278 44.5964Z" fill="#C09D5E"/>
<path d="M17.8613 19.6898C20.1932 19.6898 22.0835 17.7995 22.0835 15.4676C22.0835 13.1357 20.1932 11.2454 17.8613 11.2454C15.5294 11.2454 13.639 13.1357 13.639 15.4676C13.639 17.7995 15.5294 19.6898 17.8613 19.6898Z" fill="#C09D5E"/>
</svg>
