<svg  viewBox="0 0 51 54" fill="none" xmlns="http://www.w3.org/2000/svg">
<path d="M3.04676 22.485C2.50082 22.485 1.97724 22.2481 1.5912 21.8263C1.20516 21.4046 0.988281 20.8325 0.988281 20.2361V2.24895C0.988281 1.65249 1.20516 1.08046 1.5912 0.658704C1.97724 0.236943 2.50082 0 3.04676 0H19.5146C20.0605 0 20.5841 0.236943 20.9701 0.658704C21.3562 1.08046 21.5731 1.65249 21.5731 2.24895V20.2361C21.5731 20.8325 21.3562 21.4046 20.9701 21.8263C20.5841 22.2481 20.0605 22.485 19.5146 22.485H3.04676ZM31.8654 22.485C31.3195 22.485 30.7959 22.2481 30.4099 21.8263C30.0238 21.4046 29.807 20.8325 29.807 20.2361V2.24895C29.807 1.65249 30.0238 1.08046 30.4099 0.658704C30.7959 0.236943 31.3195 0 31.8654 0H48.3291C48.8751 0 49.3987 0.236943 49.7847 0.658704C50.1707 1.08046 50.3876 1.65249 50.3876 2.24895V20.2361C50.3876 20.8325 50.1707 21.4046 49.7847 21.8263C49.3987 22.2481 48.8751 22.485 48.3291 22.485H31.8654ZM3.04676 53.9704C2.50082 53.9704 1.97724 53.7335 1.5912 53.3117C1.20516 52.8899 0.988281 52.3179 0.988281 51.7214V33.7298C0.988281 33.1334 1.20516 32.5613 1.5912 32.1396C1.97724 31.7178 2.50082 31.4809 3.04676 31.4809H19.5146C20.0605 31.4809 20.5841 31.7178 20.9701 32.1396C21.3562 32.5613 21.5731 33.1334 21.5731 33.7298V51.7214C21.5731 52.3179 21.3562 52.8899 20.9701 53.3117C20.5841 53.7335 20.0605 53.9704 19.5146 53.9704H3.04676ZM31.8654 53.9704C31.3195 53.9704 30.7959 53.7335 30.4099 53.3117C30.0238 52.8899 29.807 52.3179 29.807 51.7214V33.7298C29.807 33.1334 30.0238 32.5613 30.4099 32.1396C30.7959 31.7178 31.3195 31.4809 31.8654 31.4809H48.3291C48.8751 31.4809 49.3987 31.7178 49.7847 32.1396C50.1707 32.5613 50.3876 33.1334 50.3876 33.7298V51.7214C50.3876 52.3179 50.1707 52.8899 49.7847 53.3117C49.3987 53.7335 48.8751 53.9704 48.3291 53.9704H31.8654Z" fill="current"/>
</svg>
